<svg width="100" height="100" viewBox="0 0 100 100" xmlns="http://www.w3.org/2000/svg" preserveAspectRatio="xMinYMin meet">
 <g>
  <title>Icon</title>
  <path stroke="white" d="m99.924614,34.019047c-0.023064,-0.121094 -0.042976,-0.242184 -0.075394,-0.360935c-0.020325,-0.07148 -0.04454,-0.138672 -0.067192,-0.208988a4.299609,4.299609 0 0 0 -0.11055,-0.312496c-0.029686,-0.071091 -0.063278,-0.139839 -0.095703,-0.208599a3.804687,3.804687 0 0 0 -0.146873,-0.285149c-0.037498,-0.068752 -0.080864,-0.133595 -0.122253,-0.199223a4.311718,4.311718 0 0 0 -0.328926,-0.446091a4.361719,4.361719 0 0 0 -0.212494,-0.232815c-0.056641,-0.056641 -0.113281,-0.113279 -0.172653,-0.16836a3.542969,3.542969 0 0 0 -0.243752,-0.203123c-0.064445,-0.050001 -0.127731,-0.101561 -0.195313,-0.147268c-0.023827,-0.017187 -0.0457,-0.037497 -0.071091,-0.053904l-45.699997,-30.468749a4.292578,4.292578 0 0 0 -4.766018,0l-45.703124,30.467967c-0.02539,0.016018 -0.045313,0.036327 -0.071094,0.053905c-0.067187,0.046877 -0.130469,0.096876 -0.195313,0.146875a6.0625,6.0625 0 0 0 -0.24375,0.201954a3.360937,3.360937 0 0 0 -0.171094,0.167967c-0.075391,0.075781 -0.145313,0.152342 -0.214063,0.233204c-0.050781,0.060547 -0.099609,0.121098 -0.146875,0.188675c-0.064453,0.084763 -0.123828,0.171093 -0.181641,0.261326c-0.041797,0.066017 -0.083594,0.13047 -0.122656,0.199219a3.747266,3.747266 0 0 0 -0.145312,0.28281c-0.032422,0.068752 -0.067187,0.138676 -0.095703,0.208591c-0.041797,0.102352 -0.078125,0.207428 -0.111719,0.312504c-0.022656,0.070316 -0.046875,0.138672 -0.066016,0.201954c-0.03125,0.118359 -0.053906,0.238277 -0.075391,0.360939c-0.011719,0.062107 -0.026953,0.122654 -0.035156,0.185936c-0.024219,0.185547 -0.0375,0.371487 -0.0375,0.561333l0,30.474998c0,0.188278 0.013281,0.376953 0.040234,0.561325c0.009766,0.067581 0.027344,0.121086 0.040625,0.185928c0.021484,0.121101 0.040234,0.242203 0.080859,0.363678c0.01875,0.067184 0.040234,0.134766 0.067188,0.208588c0.033594,0.107819 0.067187,0.21563 0.107813,0.314064c0.028125,0.0672 0.067187,0.134384 0.094141,0.201965c0.044531,0.094131 0.094531,0.188278 0.148437,0.286713c0.0375,0.067184 0.080469,0.134766 0.121094,0.196487c0.057812,0.094528 0.121094,0.175385 0.188281,0.255859c0.047266,0.067574 0.094531,0.121094 0.148438,0.185936c0.068359,0.080856 0.134375,0.161713 0.215234,0.233208c0.055078,0.053505 0.107812,0.121086 0.175,0.161316c0.078125,0.067589 0.161718,0.134773 0.242188,0.204697c0.064844,0.053902 0.135156,0.094536 0.188672,0.146873c0.025781,0.013283 0.040625,0.040237 0.067578,0.052345l45.690625,30.484375a4.224609,4.224609 0 0 0 2.383591,0.723045a4.320313,4.320313 0 0 0 2.383598,-0.722656l45.703121,-30.46875c0.025391,-0.015633 0.046875,-0.034767 0.071091,-0.052345c0.067184,-0.046875 0.13047,-0.09687 0.195313,-0.146484c0.083588,-0.066406 0.165627,-0.134758 0.243752,-0.204689c0.05899,-0.052734 0.115623,-0.11055 0.172264,-0.167183a3.857813,3.857813 0 0 0 0.359375,-0.418755c0.064842,-0.084763 0.124222,-0.172264 0.182037,-0.26133c0.041786,-0.064445 0.083588,-0.13047 0.12265,-0.196487c0.053902,-0.094521 0.100792,-0.189842 0.146484,-0.286713c0.032425,-0.068748 0.066406,-0.137497 0.095711,-0.207428c0.041794,-0.103897 0.076942,-0.208984 0.110542,-0.314064c0.022652,-0.069908 0.046875,-0.138664 0.067184,-0.208588c0.03125,-0.118355 0.052742,-0.239845 0.075394,-0.360939c0.010933,-0.062103 0.027344,-0.122658 0.033592,-0.185936c0.024612,-0.185547 0.037888,-0.371483 0.037888,-0.561317l0,-30.469933c0,-0.189838 -0.014839,-0.375778 -0.037888,-0.561718c-0.010544,-0.066013 -0.030861,-0.11953 -0.044144,-0.185547l0.006653,0zm-49.925789,26.146492l-15.197262,-10.164455l15.197262,-10.166019l15.198051,10.166019l-15.198051,10.164455zm-4.296097,-27.79493l-18.629683,12.460941l-15.03789,-10.060158l33.667966,-22.44453l0,20.043747l-0.000393,0zm-26.358198,17.62891l-10.748828,7.189842l0,-14.379295l10.748828,7.189453zm7.728516,5.173828l18.630075,12.459373l0,20.043739l-33.667966,-22.447258l15.038281,-10.05859l0,0.002735l-0.000391,0zm27.222651,12.457031l18.629688,-12.459381l15.039459,10.058205l-33.669147,22.444527l0,-20.043747l0,0.000397zm26.358204,-17.628128l10.750397,-7.19101l0,14.380856l-10.749992,-7.192577l0,0.002731l-0.000404,0zm-7.728516,-5.171093l-18.629688,-12.459377l0,-20.044918l33.669147,22.444923l-15.039063,10.059372l-0.000397,0z" fill="#000000" id="svg_1"/>
 </g>
</svg>
